Coordinates
version=1
nRows=16
nColumns=40
inDegrees=yes

Units are S.I. units (second, meters, Newtons, ...)
Angles are in degrees.

endheader
time	pelvis_tilt	pelvis_list	pelvis_rotation	pelvis_tx	pelvis_ty	pelvis_tz	hip_flexion_r	hip_adduction_r	hip_rotation_r	knee_angle_r	knee_angle_r_beta	ankle_angle_r	subtalar_angle_r	mtp_angle_r	hip_flexion_l	hip_adduction_l	hip_rotation_l	knee_angle_l	knee_angle_l_beta	ankle_angle_l	subtalar_angle_l	mtp_angle_l	lumbar_extension	lumbar_bending	lumbar_rotation	arm_flex_r	arm_add_r	arm_rot_r	elbow_flex_r	pro_sup_r	wrist_flex_r	wrist_dev_r	arm_flex_l	arm_add_l	arm_rot_l	elbow_flex_l	pro_sup_l	wrist_flex_l	wrist_dev_l
     37.15650000	     -3.71632956	     -4.54519350	     -2.26588215	      1.07173326	      0.92261321	      0.43000237	     29.19308196	     -2.39885686	    -13.98172885	     13.27680682	     13.27680682	      3.26131363	      5.00133616	     10.96436446	     -2.57511713	     -5.24633615	    -13.24039227	     14.85044188	     14.85044188	     19.13118151	     -5.92041441	     -3.31426383	    -11.76754862	      8.15224791	      2.80144878	    -13.61512484	    -11.15671999	    -15.81314850	     23.88114213	     47.04601902	      0.00000000	      0.00000000	     32.25706667	    -20.22589975	     -5.35744068	     89.54745013	     47.77110844	      0.00000000	      0.00000000
     37.16800000	     -3.70444606	     -4.45465395	     -2.19367127	      1.07383007	      0.92068198	      0.43210896	     28.56825341	     -2.06114093	    -14.83809997	     12.07228924	     12.07228924	      3.44743614	      5.53423219	     11.15692678	     -3.42835143	     -5.29918626	    -13.29179457	     14.79731275	     14.79731275	     19.52479432	     -5.64401084	     -3.46483142	    -11.54385124	      7.99286681	      2.87512157	    -15.26518199	    -10.71553655	    -15.80124680	     23.44361114	     47.04351544	      0.00000000	      0.00000000	     32.86976684	    -20.16039460	     -5.42287457	     90.65262445	     47.81038317	      0.00000000	      0.00000000
     37.17950000	     -3.71230460	     -4.40403056	     -2.13513450	      1.07604411	      0.91871797	      0.43444919	     28.11370596	     -1.74493658	    -15.59169931	     11.63243651	     11.63243651	      3.51377818	      5.86931168	     10.84402486	     -4.20836636	     -5.45574354	    -13.48221108	     14.88597741	     14.88597741	     19.97076065	     -5.17291087	     -3.61195193	    -11.30109056	      7.87540422	      3.00461451	    -16.84925076	    -10.24680937	    -15.80637159	     23.27252629	     47.03015987	      0.00000000	      0.00000000	     33.28240799	    -20.07529621	     -5.42981851	     91.92397979	     47.85040229	      0.00000000	      0.00000000
     37.19100000	     -3.80051791	     -4.37982642	     -2.04820959	      1.07822111	      0.91674872	      0.43703975	     27.87196610	     -1.44727606	    -16.00976295	     11.80421889	     11.80421889	      3.47043161	      5.68646809	     10.59741066	     -4.84466532	     -5.65049815	    -13.38341549	     15.04306056	     15.04306056	     20.32103439	     -5.03923930	     -3.72826507	    -10.93146401	      7.79160951	      2.86958952	    -18.06002153	     -9.80908619	    -15.79942835	     22.93386005	     47.03002796	      0.00000000	      0.00000000	     33.50883614	    -20.28293117	     -5.58115338	     92.39697541	     47.87368689	      0.00000000	      0.00000000
     37.20250000	     -3.83961326	     -4.45226662	     -2.04807258	      1.08053324	      0.91476484	      0.43995024	     27.74430509	     -1.11312208	    -16.24691418	     12.60782189	     12.60782189	      3.11514745	      5.40567946	      9.24138873	     -5.37783859	     -6.06452769	    -13.71272015	     15.60679967	     15.60679967	     20.83183707	     -4.59892127	     -3.86840579	    -10.72649802	      7.76594223	      3.21502407	    -19.25008716	     -9.33587483	    -15.73444656	     22.78586862	     47.01459153	      0.00000000	      0.00000000	     33.62200289	    -19.85357667	     -5.49205756	     93.92805108	     47.90813636	      0.00000000	      0.00000000
     37.21400000	     -3.96050911	     -4.45360774	     -1.98936646	      1.08275022	      0.91272549	      0.44284777	     27.79801107	     -0.91069432	    -16.10829168	     13.72503726	     13.72503726	      2.30510655	      4.61505431	      6.85263409	     -5.65229322	     -6.47614646	    -14.01137155	     16.46610684	     16.46610684	     21.42708698	     -3.96354250	     -3.99834910	    -10.39178893	      7.68592619	      3.30344723	    -20.17050851	     -8.90282537	    -15.59945371	     22.77369590	     46.98928253	      0.00000000	      0.00000000	     33.45480816	    -19.75541774	     -5.50448083	     95.18139255	     47.94689271	      0.00000000	      0.00000000
     37.22550000	     -3.91678015	     -4.53285568	     -1.88171818	      1.08538823	      0.91103330	      0.44599586	     27.24913166	     -0.47613711	    -15.61407457	     14.00269511	     14.00269511	     -0.91862232	      2.87222078	     -1.89327175	     -6.05855553	     -7.05139317	    -14.45331662	     17.49625957	     17.49625957	     22.18867809	     -3.06458982	     -3.49281248	    -10.19363932	      7.67877022	      2.96016323	    -20.73752194	     -8.72400193	    -14.44447985	     22.81454989	     46.87184852	      0.00000000	      0.00000000	     32.74556153	    -20.04206576	     -5.96741634	     96.49141354	     48.07706537	      0.00000000	      0.00000000
     37.23700000	     -3.99947310	     -4.61257426	     -1.82050847	      1.08756775	      0.90955532	      0.44907167	     27.43442208	     -0.29168375	    -15.20898508	     15.67010580	     15.67010580	     -1.12515812	      1.88395524	     -2.75932956	     -6.14250416	     -7.55418885	    -14.31874885	     18.71136894	     18.71136894	     22.23725297	     -3.36323737	     -3.94842339	     -9.93578676	      7.70119760	      3.11395108	    -21.05292500	     -8.34823277	    -14.12047834	     22.45187193	     46.85590109	      0.00000000	      0.00000000	     32.37692557	    -19.72715390	     -5.94328234	     97.05577823	     48.10053403	      0.00000000	      0.00000000
     37.24850000	     -3.97482122	     -4.74211526	     -1.74654085	      1.08974183	      0.90852021	      0.45216774	     27.53367276	     -0.10389134	    -14.85613791	     17.43411960	     17.43411960	     -1.11883423	      0.99270288	     -3.46490097	     -6.15812646	     -8.15547295	    -14.16572573	     20.25211797	     20.25211797	     22.09757731	     -3.83185952	     -4.43429598	     -9.83925842	      7.76649207	      3.25399228	    -21.14826069	     -8.12419171	    -13.92648416	     22.17670665	     46.85043900	      0.00000000	      0.00000000	     31.92316690	    -19.44838551	     -5.96648950	     97.48740456	     48.11530963	      0.00000000	      0.00000000
     37.26000000	     -4.02456000	     -4.83522140	     -1.66242266	      1.09175246	      0.90765224	      0.45533964	     27.65461677	      0.15652293	    -14.00755776	     18.96749414	     18.96749414	     -1.41330735	     -0.73813761	     -5.08176986	     -5.87197004	     -8.78693233	    -13.97237027	     22.06605950	     22.06605950	     20.90611107	     -4.77884955	     -7.13824513	     -9.66567071	      7.76486072	      2.80850847	    -20.32881069	     -8.12990305	    -12.54271052	     20.94053348	     46.80707024	      0.00000000	      0.00000000	     30.52038893	    -19.44867824	     -6.73726216	     98.74699203	     48.23808018	      0.00000000	      0.00000000
     37.27150000	     -3.99806648	     -4.96803149	     -1.56649602	      1.09359665	      0.90731296	      0.45840256	     27.75340305	      0.35063871	    -13.52037130	     20.68365260	     20.68365260	     -0.75502484	     -1.64337571	     -4.84689808	     -5.42843227	     -9.44040488	    -13.48769774	     24.23021313	     24.23021313	     19.38819572	     -6.35726317	     -9.59828801	     -9.62013755	      7.83612773	      2.71793329	    -19.73641438	     -8.14829964	    -11.33771230	     20.45530058	     46.75406005	      0.00000000	      0.00000000	     29.46510350	    -19.12738749	     -7.06585635	     99.16782310	     48.31875201	      0.00000000	      0.00000000
     37.28300000	     -3.92878692	     -5.10596507	     -1.44592101	      1.09526669	      0.90738006	      0.46145709	     27.67112137	      0.55320664	    -13.17268703	     22.10635344	     22.10635344	     -0.11174136	     -2.38694141	     -5.07809854	     -4.64051187	    -10.20151684	    -13.00385402	     27.12758184	     27.12758184	     18.33130568	     -7.56491585	    -10.28883289	     -9.65373848	      7.90276377	      2.88373150	    -19.20878097	     -8.07317647	    -11.16582889	     20.49904583	     46.74639820	      0.00000000	      0.00000000	     28.54523501	    -18.64266598	     -6.98342043	     99.08809538	     48.31384427	      0.00000000	      0.00000000
     37.29450000	     -3.84097229	     -5.25716725	     -1.31765061	      1.09672442	      0.90788687	      0.46445847	     27.52278842	      0.81125057	    -12.73089582	     23.44180278	     23.44180278	      1.19028630	     -3.09000835	     -3.63396695	     -3.78510339	    -10.87083128	    -12.14836044	     29.84719227	     29.84719227	     15.12946879	    -10.51892201	    -14.50299539	     -9.73649521	      7.98582334	      2.56637157	    -17.97492348	     -8.25339498	    -10.14751663	     19.91132039	     46.72848230	      0.00000000	      0.00000000	     26.98351218	    -18.28850436	     -7.66964314	     99.34674639	     48.39753859	      0.00000000	      0.00000000
     37.30600000	     -3.76199718	     -5.41175199	     -1.15010591	      1.09793309	      0.90862114	      0.46744060	     27.18199756	      1.07951736	    -12.49873258	     24.33316148	     24.33316148	      2.03360823	     -3.72384794	     -3.71239339	     -2.43960323	    -11.67479505	    -11.36970039	     33.49271211	     33.49271211	     13.23340370	    -12.22268944	    -14.96779750	     -9.81097506	      8.05158412	      2.62053152	    -17.04237885	     -8.34143303	     -9.96025610	     20.15420844	     46.71841079	      0.00000000	      0.00000000	     25.79421118	    -17.75717239	     -7.52571478	     98.78334279	     48.37902867	      0.00000000	      0.00000000
     37.31750000	     -3.37990051	     -5.60740384	     -0.97392539	      1.09912498	      0.91003644	      0.47037889	     26.32317126	      1.39987938	    -12.42828168	     24.89080289	     24.89080289	      2.90996381	     -4.00674156	     -3.91217535	     -1.30615017	    -12.54349041	    -10.68495126	     37.23803686	     37.23803686	     11.18038321	    -13.51141278	    -15.00454917	    -10.29753071	      8.15996854	      2.84012968	    -15.90990994	     -8.46976391	     -9.88420621	     20.50957182	     46.71034176	      0.00000000	      0.00000000	     24.61452611	    -17.16874873	     -7.30171602	     98.20248615	     48.34922263	      0.00000000	      0.00000000
     37.32900000	     -3.54473781	     -5.72872213	     -0.68386456	      1.09956798	      0.91089248	      0.47309571	     26.03010416	      1.65335561	    -12.33530810	     25.29633350	     25.29633350	      3.88064890	     -4.58532451	     -3.30213920	      0.89970550	    -13.11883130	     -9.14953434	     41.35666617	     41.35666617	      8.48504494	    -16.02579649	    -14.69893422	    -10.09128638	      8.17915290	      2.51168589	    -14.60813537	     -8.69617192	     -9.59543536	     20.82711379	     46.69536529	      0.00000000	      0.00000000	     23.18457754	    -16.60396565	     -7.57942913	     96.90024572	     48.34584448	      0.00000000	      0.00000000
